<?xml version="1.0" encoding="UTF-8"?>
<svg id="Ebene_3" data-name="Ebene 3" xmlns="http://www.w3.org/2000/svg" viewBox="0 0 1027 1027">
  <defs>
    <style>
      .cls-1 {
        fill: #fff;
      }
    </style>
  </defs>
  <path class="cls-1" d="M349.79,649.93c2.53-.46,6.63-3.46,9.34-4.69l106.3-139.17-27.93-22.14,158.98-44.45,11.7,168.36c-3.8,3.76-29.95-22.43-37.01-18.34l-130.13,175.04H89.12v-303.98l112.25,115.76v73.64h148.46l-.04-.04ZM349.79,685.04h-183.53v-94.68l-42.08-43.26v182.39h298.1l144.91-191.85-3.46-53.66-50.82,14.66-125.65,170.13c-6.25,6.63-28.39,15.08-37.47,16.31v-.04Z"/>
  <path class="cls-1" d="M201.33,487.45c18.08,16.14,30.33,39.84,54.46,48.42,32.07,11.41,57.63-1.61,78.75-25.1,53.7-59.78,115.55-172.33,186.23-206.59,69.88-33.84,154.16-26.66,220.58,11.53,3.46,5.07-16.48,22.81-18.59,29.24l-3.17.8c-70.68-45.59-178.03-36.63-232.96,29.53-4.44,5.37-10.94,12.93-11.75,19.81h50.28c1.52,0,18.59-15.21,23.87-18.25,43.77-25.14,98.99-23.11,143.31-.42l-18.76,26.95c-4.14,2.62-23.53-5.87-30.25-7.22-41.99-8.53-76.09,5.45-106.55,33.97l-94.04-.76-94.09,118.93c-32.74,27.8-79,34.73-117.7,14.74-24.12-12.46-53.99-52.56-73.98-73.3-22.18-22.98-45.67-44.78-67.85-67.77v-134.43h112.25v199.92h-.04ZM166.27,320.27h-42.08v87.67l42.08,40.94v-128.6Z"/>
  <path class="cls-1" d="M732.1,698.99l-24.88-32.32c-52.47,30.08-108.37,33.08-162.15,4.27l18.89-30.25c51.42,27.8,110.73,15.72,150.62-25.81l66.54,87.62c-71.95,72.54-196.37,88-280.36,27.8l19.73-25.98c66.25,39.71,147.45,37.43,211.62-5.37v.04Z"/>
  <path class="cls-1" d="M847.86,259.52c116.56,122.44,121.93,327.68,4.35,450.96-6.93-2.37-25.35-16.52-23.87-23.7.68-3.3,29.19-39.08,34.26-47.78,65.65-111.96,50.57-258.98-39.12-352.94l24.38-26.53h0Z"/>
  <path class="cls-1" d="M794.08,313.3c89.27,91.81,92.36,249.65,4.35,343.48-1.9.3-25.1-18.59-23.74-23.95,60.67-72.92,71.1-176.64,21.55-258.6-3.76-6.25-23.62-30.25-24.12-32.19-1.52-5.66,17.11-23.66,21.97-28.73Z"/>
  <path class="cls-1" d="M740.64,369.53c6.25-1.1,26.24,33.67,29.32,40.31,29.66,63.08,21.84,141.11-25.22,193.24l-26.07-22.1c45.46-56.02,44.91-131.43-.21-187.5l22.22-23.95h-.04Z"/>
  <path class="cls-1" d="M686.64,420.91c4.27-.97,15.93,21.76,17.83,26.36,13.73,33.33,7.98,77.23-15.89,104.35l-26.24-24.42c19.73-24.21,19.81-57.67,0-81.88l24.29-24.42h0Z"/>
</svg>